<svg width="24" height="24" viewBox="0 0 24 24" fill="none" xmlns="http://www.w3.org/2000/svg">
<path d="M12 0C5.37232 0 0 5.37232 0 12C0 18.6277 5.37232 24 12 24C18.6272 24 24 18.6277 24 12C24 5.37232 18.6272 0 12 0Z" fill="#313D27"/>
<path d="M17.7448 13.9392H13.9385V17.745C13.9385 18.8157 13.0704 19.6838 11.9997 19.6838C10.9291 19.6838 10.061 18.8157 10.061 17.745V13.9392H6.25517C5.18449 13.9392 4.31641 13.0712 4.31641 12.0005C4.31641 10.9298 5.18449 10.0617 6.25517 10.0617H10.061V6.25542C10.061 5.18473 10.9291 4.31665 11.9997 4.31665C13.0704 4.31665 13.9385 5.18473 13.9385 6.25542V10.0617H17.7448C18.8155 10.0617 19.6836 10.9298 19.6836 12.0005C19.6836 13.0712 18.8155 13.9392 17.7448 13.9392Z" fill="white"/>
</svg>
