<svg width="24" height="24" viewBox="0 0 24 24" fill="none" xmlns="http://www.w3.org/2000/svg">
<path d="M18.0246 0H5.97589C2.68939 0 0 2.54157 0 5.64744V13.2114C0 16.3173 2.68939 18.8588 5.97589 18.8588H8.11138C8.14353 18.9136 8.17515 18.9689 8.21994 19.0257L11.1107 23.5321C11.6003 24.1556 12.4013 24.1561 12.8915 23.5326L15.7801 19.0351C15.8275 18.9749 15.8612 18.9171 15.8949 18.8588H18.0241C21.3106 18.8588 24 16.3173 24 13.2114V5.64744C24 2.54107 21.3111 0 18.0246 0Z" fill="#313D27"/>
<path d="M6.28715 14.1965C7.27066 14.1965 8.06795 13.4431 8.06795 12.5136C8.06795 11.5842 7.27066 10.8307 6.28715 10.8307C5.30364 10.8307 4.50635 11.5842 4.50635 12.5136C4.50635 13.4431 5.30364 14.1965 6.28715 14.1965Z" fill="white"/>
<path d="M12.1958 14.1965C13.1794 14.1965 13.9766 13.4431 13.9766 12.5136C13.9766 11.5842 13.1794 10.8307 12.1958 10.8307C11.2123 10.8307 10.415 11.5842 10.415 12.5136C10.415 13.4431 11.2123 14.1965 12.1958 14.1965Z" fill="white"/>
<path d="M18.1045 14.1965C19.088 14.1965 19.8853 13.4431 19.8853 12.5136C19.8853 11.5842 19.088 10.8307 18.1045 10.8307C17.121 10.8307 16.3237 11.5842 16.3237 12.5136C16.3237 13.4431 17.121 14.1965 18.1045 14.1965Z" fill="white"/>
</svg>
