<svg width="23" height="24" viewBox="0 0 23 24" fill="none" xmlns="http://www.w3.org/2000/svg">
<path d="M17.2736 0H5.72689C2.57733 0 0 2.54157 0 5.64744V13.2114C0 16.3173 2.57733 18.8588 5.72689 18.8588H7.7734C7.80421 18.9136 7.83452 18.9689 7.87745 19.0257L10.6477 23.5321C11.1169 24.1556 11.8846 24.1561 12.3543 23.5326L15.1226 19.0351C15.168 18.9749 15.2003 18.9171 15.2327 18.8588H17.2731C20.4227 18.8588 23 16.3173 23 13.2114V5.64744C23.0005 2.54157 20.4232 0 17.2736 0Z" fill="#313D27"/>
<path d="M16.5971 6.02897H6.40244C5.74334 6.02897 5.20898 5.49356 5.20898 4.83364C5.20898 4.17371 5.74384 3.63831 6.40244 3.63831H16.5971C17.2562 3.63831 17.7906 4.17371 17.7906 4.83364C17.7906 5.49356 17.2562 6.02897 16.5971 6.02897Z" fill="white"/>
<path d="M16.5971 10.625H6.40244C5.74334 10.625 5.20898 10.0896 5.20898 9.4297C5.20898 8.76978 5.74384 8.23438 6.40244 8.23438H16.5971C17.2562 8.23438 17.7906 8.76978 17.7906 9.4297C17.7906 10.0896 17.2562 10.625 16.5971 10.625Z" fill="white"/>
<path d="M16.5971 15.2211H6.40244C5.74334 15.2211 5.20898 14.6857 5.20898 14.0258C5.20898 13.3659 5.74384 12.8304 6.40244 12.8304H16.5971C17.2562 12.8304 17.7906 13.3659 17.7906 14.0258C17.7906 14.6857 17.2562 15.2211 16.5971 15.2211Z" fill="white"/>
</svg>
