<svg width="20" height="24" viewBox="0 0 20 24" fill="none" xmlns="http://www.w3.org/2000/svg">
<path d="M8.93346 0.0675049C8.38178 0.0675049 7.93027 0.680097 7.93027 1.42962V5.14314C7.93027 5.89266 7.49195 6.50525 6.9559 6.50525C6.41986 6.50525 5.98154 5.89266 5.98154 5.14314V1.42962C5.98154 0.680097 5.52758 0.0675049 4.97346 0.0675049C4.41933 0.0675049 3.96538 0.680097 3.96538 1.42962V5.14314C3.96538 5.89266 3.52511 6.50525 2.98613 6.50525C2.44715 6.50525 2.00688 5.89266 2.00688 5.14314V1.42962C2.00688 0.680097 1.55537 0.0675049 1.00368 0.0675049C0.45151 0.0675049 0.000489311 0.680097 0.000489311 1.42962L0.00342052 5.84942C0.00342052 6.59894 0 7.21154 0 7.21154C0.0386032 9.49711 1.53973 11.3358 3.39024 11.3358H3.45767V16.7459V18.4472V22.6378C3.45767 23.3873 4.0807 23.9999 4.84299 23.9999H5.16745C5.92974 23.9999 6.55277 23.3873 6.55277 22.6378V18.4472V16.7459V11.3358H6.54006C8.39008 11.3358 9.89121 9.49711 9.9303 7.21154C9.9303 7.21154 9.93812 6.50862 9.93812 5.75957V1.42962C9.93714 0.680097 9.48563 0.0675049 8.93346 0.0675049Z" fill="#313D27"/>
<path d="M19.9896 10.0805C19.9896 7.01317 14.1044 0.462516 14.1044 0.462516C13.5243 -0.351872 12.9849 0.0118401 12.9849 0.760885V2.27819V16.7455V20.0054V22.6374C12.9849 23.3869 13.6079 23.9995 14.3702 23.9995H14.6946C15.4569 23.9995 16.08 23.3869 16.08 22.6374V20.0054V16.7455V14.7655C20.3991 14.753 19.9896 10.0805 19.9896 10.0805Z" fill="#313D27"/>
</svg>
