<svg width="22" height="24" viewBox="0 0 22 24" fill="none" xmlns="http://www.w3.org/2000/svg">
<path d="M10.9999 8.99463C13.5557 8.99463 15.6277 6.98111 15.6277 4.49731C15.6277 2.01352 13.5557 0 10.9999 0C8.444 0 6.37207 2.01352 6.37207 4.49731C6.37207 6.98111 8.444 8.99463 10.9999 8.99463Z" fill="#313D27"/>
<path d="M20.7407 24C19.7403 24 18.9213 24 18.9213 24H3.08787C3.08787 24 2.2666 24 1.26392 24C0.261234 24 -0.252633 22.8095 0.123088 21.3532C0.123088 21.3532 0.564087 19.6477 1.61307 17.8694C3.77176 14.2083 7.17222 11.8461 11 11.8461C14.8233 11.8461 18.2222 14.2044 20.3809 17.8585C21.4329 19.6389 21.8762 21.3532 21.8762 21.3532C22.2527 22.8095 21.7411 24 20.7407 24Z" fill="#313D27"/>
</svg>
