<svg width="26" height="24" viewBox="0 0 26 24" fill="none" xmlns="http://www.w3.org/2000/svg">
<rect width="26" height="24" fill="white"/>
<path d="M10.5226 3.09596L10.5226 3.09589C9.25295 1.73754 7.79083 1.07014 6.41962 1.00529C5.05904 0.940935 3.69751 1.46364 2.57886 2.65994L10.5226 3.09596ZM10.5226 3.09596L10.8964 3.4958L10.8967 3.49608L12.2685 4.96456L12.999 5.74654L13.7297 4.96483L15.4774 3.0954C16.747 1.73731 18.2091 1.07003 19.5803 1.00529C20.9409 0.94105 22.3025 1.4639 23.4212 2.66056C25.6308 5.02419 25.5435 9.2 23.0137 11.9062L23.0053 11.9151L22.9971 11.9243L13.2579 22.868L13.2565 22.8697C13.1658 22.972 13.0722 23 13.0011 23C12.93 23 12.8363 22.9718 12.7457 22.8692L12.7436 22.8669L3.00278 11.9237L2.99464 11.9145M10.5226 3.09596L2.99464 11.9145M2.99464 11.9145L2.98627 11.9056M2.99464 11.9145L2.98627 11.9056M2.98627 11.9056C0.456609 9.20009 0.369073 5.02437 2.57873 2.66008L2.98627 11.9056Z" stroke="#313D27" stroke-width="2"/>
</svg>
