<svg id="list__icon" viewBox="0 0 17 20" xmlns="http://www.w3.org/2000/svg">
<path d="M12.2251 1H11.2251V2V3.46933H5.77521V2V1H4.77521H3.7028C2.13848 1 1 2.35767 1 3.84772V16.1523C1 17.6423 2.13848 19 3.7028 19H13.2972C14.8615 19 16 17.6423 16 16.1523V3.84772C16 2.35766 14.8615 1 13.2972 1H12.2251Z" fill="white" stroke="#313D27" stroke-width="2"/>
<path d="M5.22498 15.6633H4.05355C3.61814 15.6633 3.26514 15.3097 3.26514 14.8739C3.26514 14.4378 3.61847 14.0846 4.05355 14.0846H5.22498C5.66073 14.0846 6.01339 14.4378 6.01339 14.8739C6.01339 15.3097 5.66039 15.6633 5.22498 15.6633Z" fill="#313D27"/>
<path d="M5.22498 12.1533H4.05355C3.61814 12.1533 3.26514 11.7997 3.26514 11.3639C3.26514 10.9281 3.61847 10.5746 4.05355 10.5746H5.22498C5.66073 10.5746 6.01339 10.9281 6.01339 11.3639C6.01339 11.7997 5.66039 12.1533 5.22498 12.1533Z" fill="#313D27"/>
<path d="M5.22498 8.61372H4.05355C3.61814 8.61372 3.26514 8.26016 3.26514 7.82438C3.26514 7.38859 3.61847 7.03503 4.05355 7.03503H5.22498C5.66073 7.03503 6.01339 7.38859 6.01339 7.82438C6.01339 8.26016 5.66039 8.61372 5.22498 8.61372Z" fill="#313D27"/>
<path d="M13.0424 15.6633H7.4204C7.0569 15.6633 6.76221 15.3097 6.76221 14.8739C6.76221 14.4378 7.05718 14.0846 7.4204 14.0846H13.0427C13.4062 14.0846 13.7009 14.4378 13.7009 14.8739C13.7006 15.3097 13.4059 15.6633 13.0424 15.6633Z" fill="#313D27"/>
<path d="M13.0424 12.1533H7.4204C7.0569 12.1533 6.76221 11.7997 6.76221 11.3639C6.76221 10.9281 7.05718 10.5746 7.4204 10.5746H13.0427C13.4062 10.5746 13.7009 10.9281 13.7009 11.3639C13.7009 11.7997 13.4059 12.1533 13.0424 12.1533Z" fill="#313D27"/>
<path d="M13.0424 8.61372H7.4204C7.0569 8.61372 6.76221 8.26016 6.76221 7.82438C6.76221 7.38859 7.05718 7.03503 7.4204 7.03503H13.0427C13.4062 7.03503 13.7009 7.38859 13.7009 7.82438C13.7009 8.26016 13.4059 8.61372 13.0424 8.61372Z" fill="#313D27"/>
</svg>
