<svg class="search_icon" width="25" height="25" viewBox="0 0 25 25" fill="none" xmlns="http://www.w3.org/2000/svg">
<path d="M24.0713 20.6128L19.7926 16.3346C19.3812 15.9226 18.7681 15.8339 18.265 16.0596L16.607 14.4012C17.5814 12.9807 18.153 11.2624 18.153 9.40916C18.153 4.52562 14.1942 0.567261 9.31163 0.567261C4.42856 0.567261 0.469727 4.52562 0.469727 9.40916C0.469727 14.2927 4.42856 18.2511 9.31163 18.2511C11.2595 18.2511 13.0548 17.6134 14.5155 16.5459L16.1218 18.1522C15.8319 18.6722 15.9018 19.3436 16.3422 19.7845L20.6209 24.0627C21.1529 24.5948 22.0226 24.5948 22.5547 24.0632L24.0708 22.5461C24.6024 22.015 24.6029 21.1443 24.0713 20.6128ZM14.6346 9.40916C14.6346 12.3492 12.2517 14.7331 9.31115 14.7331C6.3706 14.7331 3.98768 12.3492 3.98768 9.40916C3.98768 6.4691 6.3706 4.08521 9.31115 4.08521C12.2517 4.08521 14.6346 6.4691 14.6346 9.40916Z" fill="#313D27"/>
</svg>
