<svg id="background_cover__icon" width="390" height="354" viewBox="0 0 390 354" fill="none" xmlns="http://www.w3.org/2000/svg">
<rect width="390" height="353.282" fill="#2C4C31"/>
<path d="M66.7167 347.328C78.2562 342.819 89.3434 337.301 99.5877 330.296C109.508 323.511 117.937 315.274 124.405 305.117C130.949 294.842 134.725 282.541 134.782 270.346C134.841 257.91 131.814 245.936 126.742 234.638C121.551 223.075 114.496 212.537 108.801 201.239L109.74 203.108C104.543 192.728 100.749 181.729 100.049 170.068L100.17 172.156C99.6864 163.091 101.049 154.091 103.831 145.466L103.155 147.553C105.901 139.193 109.897 131.289 114.92 124.068L113.536 126.053C117.32 120.667 121.666 115.755 126.569 111.362L124.566 113.145C129.557 108.72 135.001 104.872 140.747 101.493L138.217 102.975C146.598 98.0884 155.501 94.2353 164.418 90.4517C166.649 89.5054 169.247 87.4328 170.336 85.2001C171.23 83.3659 171.378 80.8159 169.952 79.1553C166.181 74.7663 159.185 75.7347 154.492 77.726C142.265 82.9144 130.148 88.387 119.144 95.9172C107.629 103.798 98.04 113.846 90.637 125.654C83.6925 136.731 78.8395 149.612 77.3762 162.635C75.9027 175.749 78.1315 189 83.1503 201.15C88.435 213.945 96.2627 225.359 102.455 237.683L101.517 235.814C106.903 246.612 110.923 258.178 111.677 270.298L111.556 268.209C111.976 275.808 111.079 283.398 108.756 290.652L109.433 288.565C107.505 294.443 104.707 299.972 101.199 305.065L102.584 303.08C99.4173 307.619 95.7307 311.76 91.5991 315.443L93.6014 313.659C88.5929 318.076 82.964 321.833 77.2207 325.22L79.751 323.738C72.4229 328.027 64.6892 331.516 56.7881 334.603C54.5791 335.467 51.9304 337.683 50.8704 339.855C49.9762 341.689 49.8286 344.239 51.2548 345.9C55.0984 350.373 61.9411 349.195 66.7144 347.329L66.7167 347.328Z" fill="#274425"/>
<path d="M34.777 243.485C28.2974 245.613 23.7979 252.412 23.9786 259.23C24.1594 266.048 28.7701 272.44 35.0311 275.146C41.2922 277.85 48.8752 276.937 54.5616 273.171C58.5883 270.503 61.8274 266.12 61.7532 261.29C61.7185 259.054 60.9892 256.89 60.1873 254.801C58.7004 250.929 56.8275 247.021 53.5917 244.426C48.4269 240.285 40.9181 241.012 34.7778 243.486" fill="#274425"/>
<path d="M147.313 128.724C140.833 130.851 136.334 137.65 136.515 144.468C136.695 151.286 141.306 157.678 147.567 160.384C153.828 163.089 161.411 162.175 167.098 158.409C171.124 155.742 174.363 151.358 174.289 146.529C174.254 144.292 173.525 142.128 172.723 140.04C171.236 136.168 169.363 132.259 166.128 129.664C160.963 125.523 153.454 126.25 147.314 128.724" fill="#274425"/>
<path d="M282.146 63.5399C275.666 65.6677 271.167 72.4662 271.348 79.2845C271.528 86.1027 276.139 92.4947 282.4 95.2002C288.661 97.905 296.244 96.9918 301.931 93.2256C305.957 90.5579 309.196 86.1745 309.122 81.3452C309.087 79.1084 308.358 76.9444 307.556 74.856C306.069 70.984 304.196 67.0757 300.961 64.4807C295.796 60.3396 288.287 61.0665 282.147 63.5407" fill="#274425"/>
<path d="M172.94 261.1C166.461 263.228 161.961 270.027 162.142 276.845C162.323 283.663 166.933 290.055 173.194 292.761C179.455 295.465 187.038 294.552 192.725 290.786C196.752 288.118 199.991 283.735 199.916 278.906C199.882 276.669 199.153 274.505 198.351 272.417C196.864 268.545 194.991 264.636 191.755 262.041C186.59 257.9 179.081 258.627 172.941 261.101" fill="#274425"/>
<path d="M360.162 151.366C355.449 141.714 351.997 131.53 351.138 120.779C350.787 112.357 352.022 104.002 354.498 95.9554C357.103 88.3408 360.745 81.1185 365.257 74.4565C368.616 69.8158 372.402 65.5365 376.611 61.6503C380.799 58.0482 385.289 54.8345 390 51.9545V34.0625C383.138 37.3655 376.451 41.0086 370.133 45.332C358.618 53.2126 349.029 63.2612 341.626 75.069C334.681 86.1459 329.828 99.0271 328.365 112.05C326.892 125.164 329.121 138.415 334.139 150.565C339.272 162.992 346.798 174.117 352.9 186.037C357.919 196.265 361.673 207.173 362.576 218.581C362.86 225.531 362.035 232.46 360.023 239.122C358.221 244.271 355.753 249.143 352.721 253.678C350.064 257.324 347.065 260.701 343.766 263.777C339.382 267.532 334.562 270.809 329.62 273.789C322.624 277.785 315.279 281.087 307.778 284.018C305.569 284.882 302.92 287.098 301.86 289.27C300.965 291.104 300.818 293.655 302.245 295.315C306.088 299.788 312.931 298.61 317.704 296.744C329.244 292.235 340.331 286.717 350.574 279.711C360.495 272.927 368.923 264.69 375.392 254.532C381.936 244.256 385.711 231.956 385.769 219.761C385.827 207.325 382.801 195.351 377.728 184.053C372.647 172.735 365.789 162.394 360.16 151.367L360.162 151.366Z" fill="#274425"/>
<path d="M389.976 296.412C384.896 293.263 378.065 294.048 372.397 296.332C365.917 298.46 361.418 305.259 361.599 312.077C361.779 318.894 366.39 325.287 372.651 327.993C378.133 330.361 384.628 329.955 389.976 327.289V296.413V296.412Z" fill="#274425"/>
<path d="M229.741 348.178C229.876 349.452 229.979 350.73 230.068 352.009C230.087 352.434 230.103 352.859 230.115 353.283H253.322C253.295 345.321 252.232 337.325 250.624 329.605C247.846 316.267 243.566 303.308 242.54 289.656C242.162 281.33 243.059 273.029 245.492 265.047C247.661 258.789 250.706 252.882 254.405 247.39C258.014 242.387 262.137 237.778 266.682 233.607C270.138 230.635 273.804 227.918 277.678 225.517C281.704 223.237 285.909 221.296 290.232 219.649C295.98 217.69 301.878 216.243 307.845 215.12C313.168 214.224 318.52 213.526 323.876 212.853C326.906 212.473 329.989 211.576 332.487 209.742C334.173 208.504 336.41 206.171 336.55 203.886C336.885 198.407 330.654 196.299 326.11 196.87C318.388 197.84 310.693 198.913 303.046 200.38C295.142 201.897 287.506 204.146 279.989 207.023C266.467 212.2 254.311 220.475 244.183 230.784C239.28 235.774 234.997 241.353 231.259 247.262C227.497 253.208 224.732 259.542 222.598 266.234C218.046 280.509 218.784 295.684 221.716 310.211C224.279 322.911 228.373 335.247 229.743 348.179L229.741 348.178Z" fill="#274425"/>
<path d="M141.816 0H118.776C109.049 1.32197 99.3991 3.19878 90.1563 6.52069C85.8226 8.07785 81.5489 9.71631 77.4235 11.7699C74.0377 13.4557 70.7505 15.3665 67.5612 17.3964C61.8581 21.0245 56.6373 25.3653 51.7598 30.0353C46.7356 34.8457 42.4374 40.2196 38.5243 45.9589C35.0177 51.1032 32.0889 56.6531 29.9666 62.5101C27.2895 69.8981 25.5816 77.5159 25.2485 85.3767C24.9336 92.816 25.6053 100.327 26.8191 107.665C28.898 120.233 32.6847 132.461 33.987 145.163C34.114 146.398 34.2127 147.637 34.2972 148.875C34.691 157.564 33.9254 166.287 31.422 174.635C29.7448 179.503 27.4884 184.14 24.6598 188.441C22.2502 191.761 19.5202 194.822 16.5196 197.618C13.8117 199.923 10.9325 202.01 7.90422 203.875C5.34788 205.295 2.71182 206.56 0 207.652V223.916C0.864216 223.644 1.72606 223.364 2.58476 223.073C5.99427 221.918 9.40062 220.707 12.6823 219.219C15.8684 217.775 18.8841 216.045 21.8911 214.262C27.359 211.021 32.3233 207.013 36.8551 202.562C46.5319 193.059 53.0321 180.723 55.882 167.501C58.5055 155.328 57.7517 142.523 55.6468 130.329C53.5814 118.364 50.0401 106.708 48.7307 94.6052C48.5903 93.3093 48.4821 92.0102 48.3906 90.7103C48.026 82.3531 48.8846 74.0235 51.2926 66.004C53.4251 59.7722 56.4471 53.8963 60.125 48.4371C63.6908 43.4997 67.7664 38.9544 72.2524 34.8362C75.7914 31.7897 79.5513 29.01 83.522 26.5531C87.4153 24.352 91.4806 22.4767 95.6589 20.884C100.934 19.0885 106.342 17.7421 111.818 16.7098C118.421 15.6206 125.078 14.9174 131.735 14.2465C134.718 13.9458 137.905 12.9261 140.346 11.1354C142.032 9.89705 144.269 7.56406 144.409 5.27922C144.556 2.8673 143.465 1.1444 141.814 0.000788805L141.816 0Z" fill="#274425"/>
<path d="M237.112 79.62C232.398 69.9676 228.946 59.7832 228.088 49.033C227.737 40.6103 228.972 32.2554 231.448 24.2091C234.053 16.5945 237.695 9.373 242.207 2.71182C242.871 1.79473 243.547 0.888683 244.244 0H220.76C220.014 1.0931 219.283 2.19724 218.577 3.32269C211.633 14.3997 206.78 27.2808 205.316 40.3033C203.843 53.418 206.072 66.6686 211.091 78.8189C216.224 91.2462 223.751 102.373 229.853 114.294C234.871 124.521 238.625 135.429 239.528 146.835C239.811 153.785 238.986 160.713 236.974 167.375C235.173 172.524 232.704 177.396 229.673 181.931C227.016 185.577 224.017 188.955 220.717 192.03C216.333 195.785 211.513 199.062 206.57 202.043C199.575 206.038 192.229 209.34 184.728 212.271C182.519 213.135 179.871 215.351 178.811 217.523C177.916 219.357 177.769 221.907 179.195 223.568C183.039 228.041 189.881 226.863 194.655 224.997C206.194 220.488 217.281 214.97 227.526 207.964C237.446 201.18 245.875 192.943 252.343 182.785C258.887 172.51 262.663 160.21 262.72 148.015C262.779 135.579 259.752 123.605 254.679 112.306C249.598 100.989 242.74 90.648 237.111 79.6208L237.112 79.62Z" fill="#274425"/>
</svg>
