<svg id="check__icon" class="standard_icon" width="24" height="24" viewBox="0 0 24 24" fill="none" xmlns="http://www.w3.org/2000/svg">
<path d="M12 0C5.37258 0 0 5.37258 0 12C0 18.6274 5.37258 23.9995 12 23.9995C18.6274 23.9995 24 18.6269 24 11.9995C24 5.37209 18.6274 0 12 0Z" fill="#313D27"/>
<path d="M20.1348 8.40646L10.5514 17.9903C10.2336 18.3081 9.8024 18.4869 9.3523 18.4869C8.9022 18.4869 8.47148 18.3081 8.15317 17.9903L3.86489 13.7015C3.20259 13.0392 3.20259 11.9656 3.86489 11.3037C4.5272 10.6414 5.60133 10.6414 6.26266 11.3037L9.35181 14.3929L17.7365 6.0082C18.3978 5.3459 19.472 5.3459 20.1343 6.0082C20.7971 6.67051 20.7971 7.74464 20.1348 8.40646Z" fill="white"/>
</svg>
