<svg id="home__icon" class="standard_icon" width="24" height="24" viewBox="0 0 24 24" fill="none" xmlns="http://www.w3.org/2000/svg">
<path d="M12.9345 0.38023C12.4207 -0.126743 11.5807 -0.126743 11.0669 0.38023L0.9336 10.3819C0.419791 10.8888 0 11.9047 0 12.6401V22.6637C0 23.399 0.580091 24 1.28993 24H8.40898C9.11882 24 9.69891 23.399 9.69891 22.6637V17.0076C9.69891 16.2722 10.279 15.6712 10.9888 15.6712H12.9698C13.6796 15.6712 14.2597 16.2722 14.2597 17.0076V22.6632C14.2597 23.3985 14.8398 23.9995 15.5497 23.9995H22.7101C23.4199 23.9995 24 23.3985 24 22.6632V12.6396C24 11.9042 23.5797 10.8883 23.0664 10.3814L12.9345 0.38023Z" fill="#313D27"/>
</svg>
