<svg id="info__icon" class="standard_icon" width="24" height="24" viewBox="0 0 24 24" fill="none" xmlns="http://www.w3.org/2000/svg">
<path d="M12 0C5.37228 0 0 5.37228 0 12C0 18.6277 5.37228 24 12 24C18.6277 24 24 18.6277 24 12C24 5.37228 18.6277 0 12 0Z" fill="#313D27"/>
<path d="M12.1795 7.61204C13.2902 7.61204 14.1905 6.71167 14.1905 5.601C14.1905 4.49034 13.2902 3.58997 12.1795 3.58997C11.0688 3.58997 10.1685 4.49034 10.1685 5.601C10.1685 6.71167 11.0688 7.61204 12.1795 7.61204Z" fill="white"/>
<path d="M14.1944 18.3556C14.1944 19.4863 13.2875 20.4111 12.179 20.4111C11.071 20.4111 10.1641 19.4863 10.1641 18.3556V11.4586C10.1641 10.3279 11.071 9.40308 12.179 9.40308C13.2875 9.40308 14.1944 10.3279 14.1944 11.4586V18.3556Z" fill="white"/>
</svg>
