<svg id="list__icon" class="standard_icon" width="20" height="24" viewBox="0 0 20 24" fill="none" xmlns="http://www.w3.org/2000/svg">
<path d="M17.3803 0H15.7309V2.67094V2.70794C15.7309 3.25604 15.3076 3.704 14.79 3.704H5.21049C4.69243 3.704 4.26955 3.25654 4.26955 2.70794V2.67094V0H2.61969C1.17867 0 0 1.24716 0 2.77158V21.2284C0 22.7528 1.17867 24 2.61969 24H17.3803C18.8213 24 20 22.7528 20 21.2284V2.77158C20 1.24716 18.8213 0 17.3803 0Z" fill="#313D27"/>
<path d="M4.96144 20.4949H3.15923C2.48937 20.4949 1.94629 19.9645 1.94629 19.3108C1.94629 18.6567 2.48988 18.1268 3.15923 18.1268H4.96144C5.63181 18.1268 6.17438 18.6567 6.17438 19.3108C6.17438 19.9645 5.6313 20.4949 4.96144 20.4949Z" fill="white"/>
<path d="M4.96144 15.23H3.15923C2.48937 15.23 1.94629 14.6996 1.94629 14.046C1.94629 13.3923 2.48988 12.8619 3.15923 12.8619H4.96144C5.63181 12.8619 6.17438 13.3923 6.17438 14.046C6.17438 14.6996 5.6313 15.23 4.96144 15.23Z" fill="white"/>
<path d="M4.96144 9.92064H3.15923C2.48937 9.92064 1.94629 9.3903 1.94629 8.73663C1.94629 8.08295 2.48988 7.55261 3.15923 7.55261H4.96144C5.63181 7.55261 6.17438 8.08295 6.17438 8.73663C6.17438 9.3903 5.6313 9.92064 4.96144 9.92064Z" fill="white"/>
<path d="M16.9881 20.4949H8.33877C7.77955 20.4949 7.32617 19.9645 7.32617 19.3108C7.32617 18.6567 7.77998 18.1268 8.33877 18.1268H16.9885C17.5477 18.1268 18.0011 18.6567 18.0011 19.3108C18.0007 19.9645 17.5473 20.4949 16.9881 20.4949Z" fill="white"/>
<path d="M16.9881 15.23H8.33877C7.77955 15.23 7.32617 14.6996 7.32617 14.046C7.32617 13.3923 7.77998 12.8619 8.33877 12.8619H16.9885C17.5477 12.8619 18.0011 13.3923 18.0011 14.046C18.0011 14.6996 17.5473 15.23 16.9881 15.23Z" fill="white"/>
<path d="M16.9881 9.92064H8.33877C7.77955 9.92064 7.32617 9.3903 7.32617 8.73663C7.32617 8.08295 7.77998 7.55261 8.33877 7.55261H16.9885C17.5477 7.55261 18.0011 8.08295 18.0011 8.73663C18.0011 9.3903 17.5473 9.92064 16.9881 9.92064Z" fill="white"/>
</svg>
