<svg id="map__icon" class="standard_icon" width="24" height="24" viewBox="0 0 24 24" fill="none" xmlns="http://www.w3.org/2000/svg">
<path d="M12 0C5.37232 0 0 5.37232 0 12C0 18.6277 5.37232 24 12 24C18.6272 24 24 18.6277 24 12C24 5.37232 18.6272 0 12 0Z" fill="#313D27"/>
<path d="M17.7354 9.78212C17.7354 14.9528 12.0015 19.9519 12.0015 19.9519C12.0015 19.9519 6.26709 14.9528 6.26709 9.78212C6.26709 6.61563 8.8345 4.04822 12.0015 4.04822C15.1685 4.04822 17.7354 6.61563 17.7354 9.78212Z" fill="white"/>
<path d="M12.002 12.5763C13.5619 12.5763 14.8263 11.3119 14.8263 9.75203C14.8263 8.19222 13.5619 6.92773 12.002 6.92773C10.4422 6.92773 9.17773 8.19222 9.17773 9.75203C9.17773 11.3119 10.4422 12.5763 12.002 12.5763Z" fill="#313D27"/>
</svg>
