<svg id="minus__icon" class="standard_icon" width="35" height="35" viewBox="0 0 35 35" fill="none" xmlns="http://www.w3.org/2000/svg">
<g filter="url(#filter0_d_360_4932)">
<path d="M17.0165 1.34027C8.73189 1.34027 2.01648 8.05568 2.01648 16.3403C2.01648 24.6249 8.73189 31.3403 17.0165 31.3403C25.3005 31.3403 32.0165 24.6249 32.0165 16.3403C32.0165 8.05568 25.3005 1.34027 17.0165 1.34027Z" fill="#959595"/>
</g>
<path d="M24.1972 13.9174C25.5356 13.9174 26.6207 15.0025 26.6207 16.3409C26.6207 17.6792 25.5356 18.7643 24.1972 18.7643H9.83581C8.49746 18.7643 7.41235 17.6792 7.41235 16.3409C7.41235 15.0025 8.49746 13.9174 9.83581 13.9174H24.1972Z" fill="white"/>
<defs>
<filter id="filter0_d_360_4932" x="0.0164795" y="0.340271" width="34" height="34" filterUnits="userSpaceOnUse" color-interpolation-filters="sRGB">
<feFlood flood-opacity="0" result="BackgroundImageFix"/>
<feColorMatrix in="SourceAlpha" type="matrix" values="0 0 0 0 0 0 0 0 0 0 0 0 0 0 0 0 0 0 127 0" result="hardAlpha"/>
<feOffset dy="1"/>
<feGaussianBlur stdDeviation="1"/>
<feComposite in2="hardAlpha" operator="out"/>
<feColorMatrix type="matrix" values="0 0 0 0 0 0 0 0 0 0 0 0 0 0 0 0 0 0 0.2 0"/>
<feBlend mode="normal" in2="BackgroundImageFix" result="effect1_dropShadow_360_4932"/>
<feBlend mode="normal" in="SourceGraphic" in2="effect1_dropShadow_360_4932" result="shape"/>
</filter>
</defs>
</svg>
