<svg id="search__icon" class="standard_icon" width="24" height="24" viewBox="0 0 24 24" fill="none" xmlns="http://www.w3.org/2000/svg">
<path d="M23.6016 20.134L19.3229 15.8369C18.9114 15.4232 18.2983 15.334 17.7952 15.5608L16.1373 13.895C17.1117 12.4682 17.6833 10.7424 17.6833 8.88093C17.6833 3.97583 13.7245 0 8.8419 0C3.95884 0 0 3.97583 0 8.88093C0 13.786 3.95884 17.7618 8.8419 17.7618C10.7897 17.7618 12.5851 17.1213 14.0457 16.0491L15.652 17.6625C15.3621 18.1848 15.4321 18.8592 15.8725 19.3021L20.1511 23.5991C20.6832 24.1335 21.5529 24.1335 22.085 23.5996L23.6011 22.0759C24.1326 21.5424 24.1331 20.6679 23.6016 20.134ZM14.1649 8.88093C14.1649 11.834 11.782 14.2284 8.84142 14.2284C5.90087 14.2284 3.51795 11.834 3.51795 8.88093C3.51795 5.92788 5.90087 3.53347 8.84142 3.53347C11.782 3.53347 14.1649 5.92788 14.1649 8.88093Z" fill="#313D27"/>
</svg>
