<svg id="settings__icon" class="standard_icon" width="24" height="24" viewBox="0 0 24 24" fill="none" xmlns="http://www.w3.org/2000/svg">
<path d="M23.0477 13.9718C23.5712 13.9075 24 13.4236 24 12.8957V11.9802C24 11.4523 23.5712 10.9684 23.0477 10.9041L21.0875 10.6644C20.564 10.6001 20.0235 10.1341 19.8867 9.62891C19.7499 9.12327 19.4425 7.56381 19.7678 7.1476L21.0754 5.47551C21.4007 5.05978 21.3611 4.41444 20.9879 4.04125L20.3411 3.39397C19.9684 3.02127 19.3231 2.98115 18.9069 3.30648L17.3392 4.5319C16.9235 4.85723 16.2046 4.91573 15.742 4.66242L14.8066 4.26023C14.3063 4.09297 13.8447 3.52739 13.7804 3.00387L13.529 0.952305C13.4647 0.428779 12.9808 0 12.4529 0H11.5379C11.01 0 10.5261 0.428779 10.4618 0.952305L10.2104 3.00387C10.1461 3.52739 9.71157 4.08041 9.24363 4.23171C8.7757 4.38253 7.30857 4.70206 6.89285 4.37722L5.26571 3.10442C4.84998 2.77957 4.20464 2.81921 3.83145 3.19239L3.18418 3.83919C2.81147 4.21189 2.77135 4.85723 3.09668 5.27344L4.36948 6.90106C4.69433 7.31679 4.77361 8.02208 4.54544 8.46826C4.31727 8.91492 3.49887 10.2433 2.97535 10.3076L0.952304 10.5561C0.428778 10.6204 0 11.1043 0 11.6321V12.5472C0 13.0751 0.428778 13.559 0.952304 13.6233L3.01692 13.8761C3.54044 13.9404 4.08959 14.3547 4.23558 14.7975C4.38302 15.2403 4.67112 16.6523 4.34628 17.068L3.04061 18.7386C2.71528 19.1544 2.75443 19.7997 3.1281 20.1729L3.7749 20.8202C4.14808 21.1929 4.79294 21.233 5.20915 20.9077L6.86674 19.6117C7.28247 19.2863 7.99162 19.2109 8.44264 19.443C8.89413 19.675 10.2375 20.5002 10.3018 21.0237L10.5493 23.0482C10.6136 23.5717 11.0975 24.0005 11.6254 24.0005H12.5404C13.0683 24.0005 13.5522 23.5717 13.6165 23.0482L13.8698 20.9831C13.9341 20.4596 14.3537 19.9085 14.8023 19.7591C15.2514 19.6092 16.6755 19.31 17.0912 19.6349L18.6913 20.8859C19.107 21.2112 19.7523 21.1716 20.1255 20.7984L20.7723 20.1516C21.145 19.7789 21.1851 19.1336 20.8603 18.7174L19.6131 17.1221C19.2878 16.7064 19.1781 16.0746 19.3685 15.7183C19.559 15.3616 20.3551 14.3005 20.8787 14.2372L23.0477 13.9718ZM11.9995 16.1863C9.68885 16.1863 7.81469 14.3121 7.81469 12.001C7.81469 9.68982 9.68885 7.81566 11.9995 7.81566C14.3107 7.81566 16.1848 9.68982 16.1848 12.001C16.1848 14.3121 14.3107 16.1863 11.9995 16.1863Z" fill="#313D27"/>
</svg>
