<svg id="shop__icon" class="standard_icon" width="24" height="24" viewBox="0 0 24 24" fill="none" xmlns="http://www.w3.org/2000/svg">
<path d="M22.9041 7.58226H19.4094C18.6167 3.24139 15.5979 0 12.0002 0C8.40247 0 5.38364 3.24139 4.5909 7.58226H1.09624C0.338015 7.58226 -0.138795 8.18228 0.0361813 8.91575L3.31261 22.6665C3.48758 23.4 4.25067 24 5.00842 24H18.9909C19.7492 24 20.5118 23.4 20.6868 22.6665L23.9637 8.91575C24.1391 8.18228 23.6618 7.58226 22.9041 7.58226ZM12.0002 2.29528C14.756 2.29528 16.4732 4.25771 17.0803 7.58226H7.01507C7.62214 4.25771 9.24429 2.29528 12.0002 2.29528Z" fill="#313D27"/>
<path d="M5.37082 13.7388C4.48321 13.7388 3.75817 13.0781 3.64643 12.2257C3.63089 12.1584 3.62207 12.089 3.62207 12.0176C3.62207 12.0126 3.62375 12.0084 3.62375 12.0034C3.62375 12.0025 3.62333 12.0017 3.62333 12.0004C3.62333 11.0402 4.4055 10.2621 5.37082 10.2621C6.33615 10.2621 7.11832 11.0402 7.11832 12.0004C7.11832 12.9607 6.33615 13.7388 5.37082 13.7388Z" fill="white"/>
<path d="M20.3481 12.2449C20.2275 13.0886 19.5062 13.7388 18.6249 13.7388C17.6596 13.7388 16.8774 12.9607 16.8774 12.0004C16.8774 11.0402 17.6596 10.2621 18.6249 10.2621C19.523 10.2621 20.254 10.9382 20.3527 11.8049C20.3686 11.8734 20.3783 11.9444 20.3783 12.0176C20.3783 12.0957 20.3665 12.1718 20.3481 12.2449Z" fill="white"/>
</svg>
