<svg id="supermarket__icon" viewBox="0 0 25 25" fill="none" xmlns="http://www.w3.org/2000/svg">
<path d="M23.5454 8.30101H20.0691C19.2805 3.96014 16.2775 0.71875 12.6986 0.71875C9.11972 0.71875 6.11669 3.96014 5.32811 8.30101H1.85174C1.09748 8.30101 0.623162 8.90103 0.797222 9.6345L4.0565 23.3853C4.23056 24.1187 4.98966 24.7188 5.74343 24.7188H19.6528C20.407 24.7188 21.1656 24.1187 21.3397 23.3853L24.5995 9.6345C24.774 8.90103 24.2992 8.30101 23.5454 8.30101ZM12.6986 3.01403C15.44 3.01403 17.1483 4.97646 17.7521 8.30101H7.73958C8.34347 4.97646 9.95714 3.01403 12.6986 3.01403Z" fill="#274425"/>
<path d="M6.10361 14.4572C5.22065 14.4572 4.4994 13.7965 4.38825 12.944C4.37279 12.8768 4.36401 12.8074 4.36401 12.7359C4.36401 12.7309 4.36568 12.7268 4.36568 12.7217C4.36568 12.7209 4.36527 12.7201 4.36527 12.7188C4.36527 11.7585 5.14334 10.9805 6.10361 10.9805C7.06388 10.9805 7.84196 11.7585 7.84196 12.7188C7.84196 13.6791 7.06388 14.4572 6.10361 14.4572Z" fill="white"/>
<path d="M21.0027 12.9633C20.8828 13.807 20.1653 14.4572 19.2886 14.4572C18.3284 14.4572 17.5503 13.6791 17.5503 12.7188C17.5503 11.7585 18.3284 10.9805 19.2886 10.9805C20.1821 10.9805 20.9091 11.6566 21.0073 12.5233C21.0232 12.5918 21.0328 12.6628 21.0328 12.7359C21.0328 12.8141 21.0211 12.8901 21.0027 12.9633Z" fill="white"/>
</svg>